<svg width="146" height="20" viewBox="0 0 146 20" fill="none" xmlns="http://www.w3.org/2000/svg">
    <path d="M6.78696 4.90692C7.72882 4.90692 8.40751 5.18603 8.82304 5.75753C9.22472 6.28916 9.41863 7.06003 9.43248 8.08342C9.43248 9.13339 9.23857 9.93084 8.82304 10.4891C8.40751 11.0473 7.72882 11.3264 6.78696 11.3264L2.04994 11.3397V15.4067C2.04994 15.8187 1.77292 15.8718 1.66211 15.8718H0.387826C0.277019 15.8718 0 15.8187 0 15.4067V9.82451C0 9.4125 0.277019 9.37263 0.387826 9.37263H6.42683C6.77311 9.37263 7.02242 9.27959 7.16093 9.08023C7.31329 8.88087 7.38255 8.56189 7.38255 8.12329C7.38255 7.6847 7.31329 7.36572 7.16093 7.16635C7.02242 6.96699 6.77311 6.87396 6.42683 6.87396H0.387826C0.277019 6.87396 0 6.83408 0 6.42207V5.3721C0 4.94679 0.277019 4.90692 0.387826 4.90692H6.78696V4.90692ZM22.4416 15.287C22.497 15.3668 22.5109 15.4731 22.497 15.606C22.4693 15.7655 22.3447 15.8718 22.1785 15.8718H20.6549C20.5302 15.8718 20.4332 15.8452 20.364 15.7921C20.3086 15.7522 20.267 15.6858 20.2116 15.606L17.7046 11.3397H14.7821V15.4067C14.7821 15.8187 14.5189 15.8718 14.3942 15.8718H13.1338C13.0091 15.8718 12.7321 15.8187 12.7321 15.4067V9.82451C12.7321 9.4125 13.0091 9.37263 13.1338 9.37263H19.159C19.5191 9.37263 19.7545 9.27959 19.8931 9.08023C20.0454 8.88087 20.1147 8.56189 20.1147 8.12329C20.1147 7.6847 20.0454 7.36572 19.8931 7.16635C19.7545 6.96699 19.5191 6.87396 19.159 6.87396H13.1338C13.0091 6.87396 12.7321 6.83408 12.7321 6.42207V5.3721C12.7321 4.94679 13.0091 4.90692 13.1338 4.90692H19.5191C20.4609 4.90692 21.1535 5.18603 21.569 5.75753C21.943 6.30245 22.1508 7.07332 22.1785 8.08342V8.16316C22.1508 9.18656 21.943 9.95742 21.569 10.4891C21.2227 10.9409 20.6964 11.22 20.0177 11.2998L22.4416 15.287ZM27.4726 4.90692C27.5834 4.90692 27.8605 4.96008 27.8605 5.3721V15.4067C27.8605 15.8187 27.5834 15.8718 27.4726 15.8718H26.1983C26.0875 15.8718 25.8105 15.8187 25.8105 15.4067V5.3721C25.8105 4.96008 26.0875 4.90692 26.1983 4.90692H27.4726V4.90692ZM42.7256 4.90692C43.1827 4.90692 43.5013 5.05312 43.6675 5.33222C43.8198 5.58475 43.8891 6.01005 43.8891 6.62143V15.4067C43.8891 15.8187 43.6121 15.8718 43.4874 15.8718H42.2962C42.1854 15.8718 41.9084 15.8187 41.9084 15.4067V7.3923H41.8392C41.8253 7.3923 41.8115 7.3923 41.8115 7.41888L39.4291 13.0542C39.3321 13.3333 39.2352 13.5725 39.1382 13.7719C39.0413 13.9712 38.9166 14.1307 38.8058 14.2636C38.6811 14.3966 38.5288 14.5029 38.3626 14.556C38.2102 14.6092 38.0163 14.6358 37.8085 14.6358H37.2407C37.0329 14.6358 36.8528 14.6092 36.6866 14.556C36.5204 14.5029 36.3819 14.3966 36.2434 14.2636C36.1326 14.1307 36.0218 13.9712 35.911 13.7719C35.814 13.5725 35.7171 13.3333 35.6201 13.0542L33.2516 7.43217C33.2377 7.3923 33.2239 7.3923 33.21 7.3923H33.1408V15.4067C33.1408 15.8187 32.8776 15.8718 32.753 15.8718H31.5618C31.4371 15.8718 31.1601 15.8187 31.1601 15.4067V6.62143C31.1601 6.01005 31.2293 5.58475 31.3817 5.33222C31.5479 5.05312 31.8665 4.90692 32.3374 4.90692H33.6117C33.7918 4.90692 33.958 4.92021 34.0965 4.96008C34.235 4.99995 34.3735 5.06641 34.4843 5.15944C34.5813 5.26577 34.6782 5.38539 34.7613 5.54488C34.8306 5.70437 34.9137 5.90373 34.9968 6.15625L37.4346 12.0308C37.4484 12.084 37.4761 12.084 37.4761 12.084H37.6146C37.6285 12.084 37.6423 12.084 37.6562 12.0308L40.1078 6.15625C40.1909 5.90373 40.2602 5.70437 40.3433 5.54488C40.4264 5.38539 40.5233 5.26577 40.6203 5.15944C40.7311 5.06641 40.8557 4.99995 40.9943 4.96008C41.1328 4.92021 41.2851 4.90692 41.479 4.90692H42.7256V4.90692ZM54.6128 6.14296L58.505 15.3535C58.5604 15.4731 58.5742 15.5927 58.5465 15.6725C58.5188 15.7389 58.4634 15.8718 58.2418 15.8718H56.7597C56.5658 15.8718 56.4273 15.7655 56.3581 15.5794L52.923 7.35243L52.9092 7.32584H52.8538C52.8538 7.32584 52.8399 7.33913 52.8261 7.36572L51.0531 11.6719H52.7707C52.9507 11.6719 53.1031 11.7783 53.1723 11.9378L53.671 13.1206C53.7125 13.2535 53.6987 13.3997 53.6156 13.5061C53.5463 13.6257 53.4078 13.6921 53.2554 13.6921H50.2221L49.4326 15.5927C49.3633 15.7655 49.2248 15.8718 49.0448 15.8718H47.5212C47.2995 15.8718 47.2303 15.7522 47.2164 15.6725C47.1887 15.5927 47.2026 15.4731 47.2441 15.3535L51.1086 6.14296C51.3025 5.66449 51.5102 5.34551 51.718 5.17273C51.7734 5.13286 51.8427 5.0797 51.9258 5.03983C52.2028 4.85375 52.5352 4.76072 52.8815 4.76072C53.6433 4.76072 54.3081 5.25248 54.5297 5.9436L54.6128 6.14296Z"
          fill="white"/>
    <path d="M76.4925 12.0381C77.0989 11.4872 77.0027 10.7098 76.2794 10.3108L74.9152 9.55734C74.1919 9.15805 73.7571 8.19333 73.9489 7.41403L75.5915 0.732106C75.7831 -0.0471938 75.4439 -0.234489 74.838 0.316338L66.4228 7.96227C65.8167 8.5131 65.9128 9.29028 66.6362 9.68981L68 10.4428C68.7232 10.8423 69.1584 11.807 68.9669 12.5861L67.3237 19.268C67.1325 20.0473 67.4713 20.2344 68.0775 19.6838L76.4925 12.0381Z"
          fill="white"/>
    <path d="M94.0416 4.76072C94.1679 4.76072 94.4487 4.80112 94.4487 5.21863V6.26914C94.4487 6.71358 94.1679 6.75398 94.0416 6.75398H90.4345V15.4004C90.4345 15.818 90.1678 15.8584 90.0415 15.8584H88.7502C88.6379 15.8584 88.3572 15.818 88.3572 15.4004V6.75398H84.7501C84.6237 6.75398 84.343 6.71358 84.343 6.26914V5.21863C84.343 4.80112 84.6237 4.76072 84.7501 4.76072H94.0416V4.76072ZM107.351 5.74388C107.631 6.08058 107.828 6.52503 107.954 7.06375C108.066 7.589 108.137 8.23547 108.137 8.97621V11.6429C108.137 12.3971 108.066 13.0435 107.954 13.5688C107.828 14.1075 107.631 14.552 107.351 14.9021C107.07 15.2388 106.705 15.4947 106.256 15.6429C105.821 15.791 105.287 15.8718 104.67 15.8718H101.245C100.627 15.8718 100.094 15.791 99.6731 15.6429C99.2239 15.4947 98.859 15.2388 98.5783 14.8887C98.3116 14.552 98.1011 14.1075 97.9748 13.5688C97.8484 13.0435 97.7923 12.3971 97.7923 11.6429V8.97621C97.7923 8.222 97.8484 7.589 97.9748 7.06375C98.1011 6.52503 98.3116 6.08058 98.5783 5.74388C98.859 5.40718 99.2239 5.15129 99.6731 4.98968C100.108 4.84153 100.627 4.76072 101.245 4.76072H104.67C105.287 4.76072 105.821 4.84153 106.256 4.98968C106.705 5.15129 107.07 5.40718 107.351 5.74388V5.74388ZM106.045 8.74725C106.045 8.35668 106.031 8.01998 105.975 7.75062C105.933 7.49473 105.849 7.29271 105.736 7.14456C105.638 7.00988 105.498 6.9156 105.315 6.84826C105.133 6.79439 104.894 6.75398 104.6 6.75398H101.315C101.02 6.75398 100.782 6.79439 100.599 6.84826C100.417 6.9156 100.277 7.00988 100.178 7.14456C100.066 7.29271 99.9959 7.49473 99.9397 7.75062C99.8976 8.01998 99.8696 8.35668 99.8696 8.74725V11.8853C99.8696 12.2759 99.8976 12.6126 99.9397 12.8819C99.9959 13.1244 100.066 13.3398 100.178 13.4745C100.277 13.6227 100.417 13.7169 100.599 13.7708C100.782 13.8382 101.02 13.8651 101.315 13.8651H104.6C104.894 13.8651 105.133 13.8382 105.315 13.7708C105.498 13.7169 105.638 13.6227 105.736 13.4745C105.849 13.3398 105.933 13.1244 105.975 12.8819C106.031 12.6126 106.045 12.2759 106.045 11.8853V8.74725ZM121.038 5.74388C121.319 6.08058 121.516 6.52503 121.642 7.06375C121.754 7.589 121.824 8.23547 121.824 8.97621V11.6429C121.824 12.3971 121.754 13.0435 121.642 13.5688C121.516 14.1075 121.319 14.552 121.038 14.9021C120.758 15.2388 120.393 15.4947 119.944 15.6429C119.509 15.791 118.975 15.8718 118.358 15.8718H114.933C114.315 15.8718 113.782 15.791 113.361 15.6429C112.912 15.4947 112.547 15.2388 112.266 14.8887C111.999 14.552 111.789 14.1075 111.663 13.5688C111.536 13.0435 111.48 12.3971 111.48 11.6429V8.97621C111.48 8.222 111.536 7.589 111.663 7.06375C111.789 6.52503 111.999 6.08058 112.266 5.74388C112.547 5.40718 112.912 5.15129 113.361 4.98968C113.796 4.84153 114.315 4.76072 114.933 4.76072H118.358C118.975 4.76072 119.509 4.84153 119.944 4.98968C120.393 5.15129 120.758 5.40718 121.038 5.74388V5.74388ZM119.733 8.74725C119.733 8.35668 119.719 8.01998 119.663 7.75062C119.621 7.49473 119.537 7.29271 119.424 7.14456C119.326 7.00988 119.186 6.9156 119.003 6.84826C118.821 6.79439 118.582 6.75398 118.287 6.75398H115.003C114.708 6.75398 114.47 6.79439 114.287 6.84826C114.105 6.9156 113.964 7.00988 113.866 7.14456C113.754 7.29271 113.684 7.49473 113.628 7.75062C113.586 8.01998 113.557 8.35668 113.557 8.74725V11.8853C113.557 12.2759 113.586 12.6126 113.628 12.8819C113.684 13.1244 113.754 13.3398 113.866 13.4745C113.964 13.6227 114.105 13.7169 114.287 13.7708C114.47 13.8382 114.708 13.8651 115.003 13.8651H118.287C118.582 13.8651 118.821 13.8382 119.003 13.7708C119.186 13.7169 119.326 13.6227 119.424 13.4745C119.537 13.3398 119.621 13.1244 119.663 12.8819C119.719 12.6126 119.733 12.2759 119.733 11.8853V8.74725ZM133.267 13.8651C133.393 13.8651 133.66 13.919 133.66 14.3365V15.4004C133.66 15.818 133.393 15.8718 133.267 15.8718H128.635C128.017 15.8718 127.484 15.791 127.063 15.6429C126.614 15.4947 126.249 15.2388 125.968 14.8887C125.687 14.552 125.491 14.1075 125.365 13.5688C125.238 13.0435 125.168 12.3971 125.168 11.6429V5.2321C125.168 4.80112 125.449 4.76072 125.575 4.76072H126.866C126.979 4.76072 127.259 4.80112 127.259 5.2321V11.8718C127.259 12.2759 127.273 12.6126 127.33 12.8819C127.372 13.1244 127.456 13.3264 127.568 13.4745C127.666 13.6227 127.807 13.7169 127.975 13.7708C128.172 13.8382 128.41 13.8651 128.705 13.8651H133.267V13.8651ZM143.782 9.2321C144.512 9.2321 145.074 9.48799 145.453 9.97284C145.818 10.4577 146 11.1446 146 12.02V13.2052C146 13.9863 145.818 14.6193 145.467 15.1042C145.102 15.6025 144.526 15.8584 143.754 15.8584H137.424C137.298 15.8584 137.017 15.818 137.017 15.4004V14.323C137.017 13.9055 137.298 13.8651 137.424 13.8651H143.417C143.656 13.8651 143.74 13.7708 143.796 13.69C143.881 13.5553 143.923 13.3668 143.923 13.1244V11.9661C143.923 11.3062 143.642 11.2254 143.432 11.2254H139.221C138.631 11.2254 137.986 11.1446 137.551 10.5924C137.2 10.121 137.003 9.36678 137.003 8.43749V7.41392C137.003 6.63277 137.186 5.98631 137.551 5.50146C137.916 5.00314 138.477 4.76072 139.249 4.76072H145.298C145.411 4.76072 145.691 4.80112 145.691 5.21863V6.29607C145.691 6.71358 145.411 6.75398 145.298 6.75398H139.586C139.347 6.75398 139.263 6.84826 139.207 6.92907C139.137 7.06375 139.095 7.2523 139.095 7.49473V8.49136C139.095 9.15129 139.361 9.2321 139.572 9.2321H143.782V9.2321Z"
          fill="white"/>
</svg>
