<svg width="94" height="39" viewBox="0 0 94 39" fill="none" xmlns="http://www.w3.org/2000/svg">
    <path d="M88.5 36H27.5C23.634 36 20.5 32.866 20.5 29V10.5C20.5 6.35786 17.1421 3 13 3V3H5.5" stroke="#C9C9C9"
          stroke-width="2"/>
    <circle cx="91" cy="36" r="2" stroke="#C9C9C9" stroke-width="2"/>
    <circle cx="3" cy="3" r="2" stroke="#C9C9C9" stroke-width="2"/>
    <path d="M57.414 29.988C57.414 30.2667 57.3187 30.5087 57.128 30.714C56.9373 30.9047 56.7027 31 56.424 31H53.344C52.6693 31 52.09 30.7653 51.606 30.296C51.1367 29.812 50.902 29.2253 50.902 28.536V17.14C50.902 16.8467 50.9973 16.6047 51.188 16.414C51.3787 16.2233 51.6133 16.128 51.892 16.128H52.508C52.7867 16.128 53.0213 16.2233 53.212 16.414C53.4173 16.6047 53.52 16.8467 53.52 17.14V19.34C53.52 19.516 53.6153 19.604 53.806 19.604H56.424C56.7027 19.604 56.9373 19.7067 57.128 19.912C57.3187 20.1027 57.414 20.3447 57.414 20.638V21.232C57.414 21.4813 57.3187 21.716 57.128 21.936C56.908 22.1267 56.6733 22.222 56.424 22.222H53.806C53.6153 22.222 53.52 22.3247 53.52 22.53V28.118C53.52 28.3087 53.6153 28.404 53.806 28.404H56.424C56.7027 28.404 56.9373 28.4993 57.128 28.69C57.3187 28.8807 57.414 29.1227 57.414 29.416V29.988ZM67.1585 28.536C67.1585 29.2253 66.9165 29.812 66.4325 30.296C65.9631 30.7653 65.3911 31 64.7165 31H61.6585C60.9838 31 60.4045 30.7653 59.9205 30.296C59.4365 29.812 59.1945 29.2253 59.1945 28.536V22.068C59.1945 21.6133 59.3045 21.2027 59.5245 20.836C59.7591 20.4547 60.0598 20.154 60.4265 19.934C60.7931 19.714 61.2038 19.604 61.6585 19.604H64.7165C65.1711 19.604 65.5818 19.714 65.9485 19.934C66.3151 20.154 66.6085 20.4547 66.8285 20.836C67.0485 21.2027 67.1585 21.6133 67.1585 22.068V28.536ZM64.5625 28.118V22.53C64.5625 22.442 64.5258 22.3687 64.4525 22.31C64.3938 22.2513 64.3278 22.222 64.2545 22.222H62.1205C62.0471 22.222 61.9738 22.2513 61.9005 22.31C61.8418 22.3687 61.8125 22.442 61.8125 22.53V28.118C61.8125 28.1913 61.8418 28.2573 61.9005 28.316C61.9738 28.3747 62.0471 28.404 62.1205 28.404H64.2545C64.3278 28.404 64.3938 28.3747 64.4525 28.316C64.5258 28.2573 64.5625 28.1913 64.5625 28.118ZM76.9124 28.536C76.9124 29.2253 76.6704 29.812 76.1864 30.296C75.717 30.7653 75.145 31 74.4704 31H71.4124C70.7377 31 70.1584 30.7653 69.6744 30.296C69.1904 29.812 68.9484 29.2253 68.9484 28.536V22.068C68.9484 21.6133 69.0584 21.2027 69.2784 20.836C69.513 20.4547 69.8137 20.154 70.1804 19.934C70.547 19.714 70.9577 19.604 71.4124 19.604H74.4704C74.925 19.604 75.3357 19.714 75.7024 19.934C76.069 20.154 76.3624 20.4547 76.5824 20.836C76.8024 21.2027 76.9124 21.6133 76.9124 22.068V28.536ZM74.3164 28.118V22.53C74.3164 22.442 74.2797 22.3687 74.2064 22.31C74.1477 22.2513 74.0817 22.222 74.0084 22.222H71.8744C71.801 22.222 71.7277 22.2513 71.6544 22.31C71.5957 22.3687 71.5664 22.442 71.5664 22.53V28.118C71.5664 28.1913 71.5957 28.2573 71.6544 28.316C71.7277 28.3747 71.801 28.404 71.8744 28.404H74.0084C74.0817 28.404 74.1477 28.3747 74.2064 28.316C74.2797 28.2573 74.3164 28.1913 74.3164 28.118ZM82.7063 29.988C82.7063 30.2667 82.6036 30.5087 82.3983 30.714C82.2076 30.9047 81.9729 31 81.6943 31H81.1443C80.4696 31 79.8903 30.7653 79.4063 30.296C78.9223 29.812 78.6803 29.2253 78.6803 28.536V17.14C78.6803 16.8467 78.7756 16.6047 78.9663 16.414C79.1716 16.2233 79.4136 16.128 79.6923 16.128H80.3083C80.5869 16.128 80.8216 16.2233 81.0123 16.414C81.2176 16.6047 81.3203 16.8467 81.3203 17.14V28.118C81.3203 28.3087 81.4083 28.404 81.5843 28.404H81.6943C81.9729 28.404 82.2076 28.4993 82.3983 28.69C82.6036 28.8807 82.7063 29.1227 82.7063 29.416V29.988ZM92.4026 28.536C92.4026 29.2253 92.1606 29.812 91.6766 30.296C91.2073 30.7653 90.6353 31 89.9606 31H86.9026C86.2279 31 85.6486 30.7653 85.1646 30.296C84.6806 29.812 84.4386 29.2253 84.4386 28.536V27.634C84.4386 27.3553 84.5339 27.1207 84.7246 26.93C84.9299 26.7247 85.1719 26.622 85.4506 26.622H86.0666C86.3453 26.622 86.5799 26.7247 86.7706 26.93C86.9613 27.1207 87.0566 27.3553 87.0566 27.634V28.118C87.0566 28.3087 87.1593 28.404 87.3646 28.404H89.4986C89.5719 28.404 89.6379 28.3747 89.6966 28.316C89.7699 28.2573 89.8066 28.1913 89.8066 28.118V27.304C89.8066 27.1867 89.7479 27.106 89.6306 27.062L86.4406 26.05C85.8539 25.8447 85.3699 25.4927 84.9886 24.994C84.6219 24.4953 84.4386 23.9307 84.4386 23.3V22.068C84.4386 21.6133 84.5486 21.2027 84.7686 20.836C85.0033 20.4693 85.3039 20.176 85.6706 19.956C86.0373 19.7213 86.4479 19.604 86.9026 19.604H89.9606C90.4153 19.604 90.8259 19.7213 91.1926 19.956C91.5593 20.176 91.8526 20.4693 92.0726 20.836C92.2926 21.2027 92.4026 21.6133 92.4026 22.068V22.948C92.4026 23.2267 92.3073 23.4687 92.1166 23.674C91.9259 23.8647 91.6913 23.96 91.4126 23.96H90.7966C90.5179 23.96 90.2833 23.8647 90.0926 23.674C89.9019 23.4687 89.8066 23.2267 89.8066 22.948V22.53C89.8066 22.442 89.7699 22.3687 89.6966 22.31C89.6379 22.2513 89.5719 22.222 89.4986 22.222H87.3646C87.1593 22.222 87.0566 22.3247 87.0566 22.53V23.3C87.0566 23.4467 87.1153 23.5347 87.2326 23.564L90.4226 24.576C91.0239 24.7667 91.5006 25.1113 91.8526 25.61C92.2193 26.1087 92.4026 26.6733 92.4026 27.304V28.536Z"
          fill="black"/>
    <path d="M8.844 28.536C8.844 29.2253 8.602 29.812 8.118 30.296C7.64867 30.7653 7.07667 31 6.402 31H3.806C3.73267 31 3.65933 31.0293 3.586 31.088C3.52733 31.1467 3.498 31.2127 3.498 31.286V33.508C3.498 33.7867 3.40267 34.0213 3.212 34.212C3.02133 34.4173 2.78667 34.52 2.508 34.52H1.892C1.61333 34.52 1.37133 34.4173 1.166 34.212C0.975333 34.0213 0.88 33.7867 0.88 33.508V22.068C0.88 21.6133 0.99 21.2027 1.21 20.836C1.44467 20.4547 1.74533 20.154 2.112 19.934C2.47867 19.714 2.88933 19.604 3.344 19.604H6.402C6.85667 19.604 7.26733 19.714 7.634 19.934C8.00067 20.154 8.294 20.4547 8.514 20.836C8.734 21.2027 8.844 21.6133 8.844 22.068V28.536ZM6.248 28.118V22.53C6.248 22.442 6.21133 22.3687 6.138 22.31C6.07933 22.2513 6.01333 22.222 5.94 22.222H3.806C3.73267 22.222 3.65933 22.2513 3.586 22.31C3.52733 22.3687 3.498 22.442 3.498 22.53V28.118C3.498 28.1913 3.52733 28.2573 3.586 28.316C3.65933 28.3747 3.73267 28.404 3.806 28.404H5.94C6.01333 28.404 6.07933 28.3747 6.138 28.316C6.21133 28.2573 6.248 28.1913 6.248 28.118ZM17.1679 21.232C17.1679 21.5107 17.0726 21.7453 16.8819 21.936C16.6912 22.1267 16.4566 22.222 16.1779 22.222H13.5599C13.3692 22.222 13.2739 22.3247 13.2739 22.53V29.988C13.2739 30.2667 13.1712 30.5087 12.9659 30.714C12.7752 30.9047 12.5406 31 12.2619 31H11.6459C11.3672 31 11.1326 30.9047 10.9419 30.714C10.7512 30.5087 10.6559 30.2667 10.6559 29.988V22.068C10.6559 21.6133 10.7659 21.2027 10.9859 20.836C11.2059 20.4547 11.4992 20.154 11.8659 19.934C12.2326 19.714 12.6432 19.604 13.0979 19.604H16.1779C16.4566 19.604 16.6912 19.7067 16.8819 19.912C17.0726 20.1027 17.1679 20.3447 17.1679 20.638V21.232ZM22.2704 17.536C22.2704 17.9907 22.1017 18.3867 21.7644 18.724C21.4417 19.0467 21.0604 19.208 20.6204 19.208C20.1657 19.208 19.7697 19.0467 19.4324 18.724C19.1097 18.3867 18.9484 17.9907 18.9484 17.536C18.9484 17.096 19.1097 16.7147 19.4324 16.392C19.7697 16.0547 20.1657 15.886 20.6204 15.886C21.0604 15.886 21.4417 16.0547 21.7644 16.392C22.1017 16.7147 22.2704 17.096 22.2704 17.536ZM21.9184 29.988C21.9184 30.2667 21.8157 30.5087 21.6104 30.714C21.4197 30.9047 21.185 31 20.9064 31H20.3124C20.0337 31 19.7917 30.9047 19.5864 30.714C19.3957 30.5087 19.3004 30.2667 19.3004 29.988V20.858C19.3004 20.5793 19.3957 20.3447 19.5864 20.154C19.7917 19.9487 20.0337 19.846 20.3124 19.846H20.9064C21.185 19.846 21.4197 19.9487 21.6104 20.154C21.8157 20.3447 21.9184 20.5793 21.9184 20.858V29.988ZM34.7542 29.988C34.7542 30.2667 34.6515 30.5087 34.4462 30.714C34.2555 30.9047 34.0208 31 33.7422 31H33.1262C32.8475 31 32.6055 30.9047 32.4002 30.714C32.2095 30.5087 32.1142 30.2667 32.1142 29.988V22.53C32.1142 22.3247 32.0188 22.222 31.8282 22.222H30.9702C30.7942 22.222 30.7062 22.3247 30.7062 22.53V29.988C30.7062 30.2667 30.6035 30.5087 30.3982 30.714C30.2075 30.9047 29.9728 31 29.6942 31H29.1002C28.8215 31 28.5795 30.9047 28.3742 30.714C28.1835 30.5087 28.0882 30.2667 28.0882 29.988V22.53C28.0882 22.3247 28.0002 22.222 27.8242 22.222H26.9662C26.7755 22.222 26.6802 22.3247 26.6802 22.53V29.988C26.6802 30.2667 26.5775 30.5087 26.3722 30.714C26.1815 30.9047 25.9468 31 25.6682 31H25.0522C24.7735 31 24.5315 30.9047 24.3262 30.714C24.1355 30.5087 24.0402 30.2667 24.0402 29.988V22.068C24.0402 21.6133 24.1502 21.2027 24.3702 20.836C24.6048 20.4547 24.9055 20.154 25.2722 19.934C25.6388 19.714 26.0495 19.604 26.5042 19.604H28.2422C28.5648 19.604 28.8582 19.67 29.1222 19.802C29.2982 19.846 29.4815 19.846 29.6722 19.802C29.9362 19.67 30.2295 19.604 30.5522 19.604H32.2902C32.7448 19.604 33.1555 19.714 33.5222 19.934C33.8888 20.154 34.1822 20.4547 34.4022 20.836C34.6368 21.2027 34.7542 21.6133 34.7542 22.068V29.988ZM44.4866 28.536C44.4866 29.2253 44.2446 29.812 43.7606 30.296C43.2912 30.7653 42.7192 31 42.0446 31H38.9866C38.3119 31 37.7326 30.7653 37.2486 30.296C36.7646 29.812 36.5226 29.2253 36.5226 28.536V26.138C36.5226 25.6833 36.6326 25.28 36.8526 24.928C37.0872 24.5613 37.3879 24.268 37.7546 24.048C38.1212 23.828 38.5319 23.718 38.9866 23.718H41.5826C41.6559 23.718 41.7219 23.6887 41.7806 23.63C41.8539 23.5713 41.8906 23.498 41.8906 23.41V22.53C41.8906 22.442 41.8539 22.3687 41.7806 22.31C41.7219 22.2513 41.6559 22.222 41.5826 22.222H38.9866C38.7079 22.222 38.4659 22.1267 38.2606 21.936C38.0699 21.7453 37.9746 21.5107 37.9746 21.232V20.638C37.9746 20.3447 38.0699 20.1027 38.2606 19.912C38.4659 19.7067 38.7079 19.604 38.9866 19.604H42.0446C42.4992 19.604 42.9099 19.714 43.2766 19.934C43.6432 20.154 43.9366 20.4547 44.1566 20.836C44.3766 21.2027 44.4866 21.6133 44.4866 22.068V28.536ZM41.8906 28.118V26.6C41.8906 26.5267 41.8539 26.4607 41.7806 26.402C41.7219 26.3433 41.6559 26.314 41.5826 26.314H39.4486C39.3752 26.314 39.3019 26.3433 39.2286 26.402C39.1699 26.4607 39.1406 26.5267 39.1406 26.6V28.118C39.1406 28.1913 39.1699 28.2573 39.2286 28.316C39.3019 28.3747 39.3752 28.404 39.4486 28.404H41.5826C41.6559 28.404 41.7219 28.3747 41.7806 28.316C41.8539 28.2573 41.8906 28.1913 41.8906 28.118Z"
          fill="black"/>
    <circle cx="20.4" cy="17.3" r="2" fill="#FF0099"/>
</svg>
