<svg width="107" height="51" viewBox="0 0 107 51" fill="none" xmlns="http://www.w3.org/2000/svg">
    <path d="M15 2H14V3V43V46.1093L15.8125 43.5829L22.4792 34.2906L28.846 25.4162C29.2018 25.4174 29.5586 25.4194 29.9154 25.4215C31.5096 25.4309 33.1035 25.4402 34.604 25.3645C36.607 25.2634 38.546 25.0084 40.2397 24.3573C41.9573 23.6971 43.4314 22.6256 44.4585 20.9147C45.4745 19.2225 46 16.9935 46 14.1042C46 8.27277 43.8527 5.16463 41.518 3.56335C40.3785 2.78186 39.2425 2.39297 38.3925 2.19865C37.9664 2.10124 37.6078 2.0517 37.3501 2.02645C37.2211 2.01381 37.1168 2.0072 37.0413 2.00375C37.0036 2.00203 36.973 2.00109 36.9501 2.00058L36.9215 2.0001L36.9116 2.00002L36.9078 2L36.9062 2C36.9055 2 36.9048 2 36.9048 2.99188V2L28.3333 2H15Z"
          stroke="#0075FF" stroke-width="2"/>
    <path d="M49.03 45.32C49.03 45.79 48.865 46.19 48.535 46.52C48.215 46.84 47.825 47 47.365 47H45.595C45.545 47 45.495 47.02 45.445 47.06C45.405 47.1 45.385 47.145 45.385 47.195V48.71C45.385 48.9 45.32 49.06 45.19 49.19C45.06 49.33 44.9 49.4 44.71 49.4H44.29C44.1 49.4 43.935 49.33 43.795 49.19C43.665 49.06 43.6 48.9 43.6 48.71V40.91C43.6 40.6 43.675 40.32 43.825 40.07C43.985 39.81 44.19 39.605 44.44 39.455C44.69 39.305 44.97 39.23 45.28 39.23H47.365C47.675 39.23 47.955 39.305 48.205 39.455C48.455 39.605 48.655 39.81 48.805 40.07C48.955 40.32 49.03 40.6 49.03 40.91V45.32ZM47.26 45.035V41.225C47.26 41.165 47.235 41.115 47.185 41.075C47.145 41.035 47.1 41.015 47.05 41.015H45.595C45.545 41.015 45.495 41.035 45.445 41.075C45.405 41.115 45.385 41.165 45.385 41.225V45.035C45.385 45.085 45.405 45.13 45.445 45.17C45.495 45.21 45.545 45.23 45.595 45.23H47.05C47.1 45.23 47.145 45.21 47.185 45.17C47.235 45.13 47.26 45.085 47.26 45.035ZM54.7054 40.34C54.7054 40.53 54.6404 40.69 54.5104 40.82C54.3804 40.95 54.2204 41.015 54.0304 41.015H52.2454C52.1154 41.015 52.0504 41.085 52.0504 41.225V46.31C52.0504 46.5 51.9804 46.665 51.8404 46.805C51.7104 46.935 51.5504 47 51.3604 47H50.9404C50.7504 47 50.5904 46.935 50.4604 46.805C50.3304 46.665 50.2654 46.5 50.2654 46.31V40.91C50.2654 40.6 50.3404 40.32 50.4904 40.07C50.6404 39.81 50.8404 39.605 51.0904 39.455C51.3404 39.305 51.6204 39.23 51.9304 39.23H54.0304C54.2204 39.23 54.3804 39.3 54.5104 39.44C54.6404 39.57 54.7054 39.735 54.7054 39.935V40.34ZM58.1843 37.82C58.1843 38.13 58.0693 38.4 57.8393 38.63C57.6193 38.85 57.3593 38.96 57.0593 38.96C56.7493 38.96 56.4793 38.85 56.2493 38.63C56.0293 38.4 55.9193 38.13 55.9193 37.82C55.9193 37.52 56.0293 37.26 56.2493 37.04C56.4793 36.81 56.7493 36.695 57.0593 36.695C57.3593 36.695 57.6193 36.81 57.8393 37.04C58.0693 37.26 58.1843 37.52 58.1843 37.82ZM57.9443 46.31C57.9443 46.5 57.8743 46.665 57.7343 46.805C57.6043 46.935 57.4443 47 57.2543 47H56.8493C56.6593 47 56.4943 46.935 56.3543 46.805C56.2243 46.665 56.1593 46.5 56.1593 46.31V40.085C56.1593 39.895 56.2243 39.735 56.3543 39.605C56.4943 39.465 56.6593 39.395 56.8493 39.395H57.2543C57.4443 39.395 57.6043 39.465 57.7343 39.605C57.8743 39.735 57.9443 39.895 57.9443 40.085V46.31ZM66.696 46.31C66.696 46.5 66.626 46.665 66.486 46.805C66.356 46.935 66.196 47 66.006 47H65.586C65.396 47 65.231 46.935 65.091 46.805C64.961 46.665 64.896 46.5 64.896 46.31V41.225C64.896 41.085 64.831 41.015 64.701 41.015H64.116C63.996 41.015 63.936 41.085 63.936 41.225V46.31C63.936 46.5 63.866 46.665 63.726 46.805C63.596 46.935 63.436 47 63.246 47H62.841C62.651 47 62.486 46.935 62.346 46.805C62.216 46.665 62.151 46.5 62.151 46.31V41.225C62.151 41.085 62.091 41.015 61.971 41.015H61.386C61.256 41.015 61.191 41.085 61.191 41.225V46.31C61.191 46.5 61.121 46.665 60.981 46.805C60.851 46.935 60.691 47 60.501 47H60.081C59.891 47 59.726 46.935 59.586 46.805C59.456 46.665 59.391 46.5 59.391 46.31V40.91C59.391 40.6 59.466 40.32 59.616 40.07C59.776 39.81 59.981 39.605 60.231 39.455C60.481 39.305 60.761 39.23 61.071 39.23H62.256C62.476 39.23 62.676 39.275 62.856 39.365C62.976 39.395 63.101 39.395 63.231 39.365C63.411 39.275 63.611 39.23 63.831 39.23H65.016C65.326 39.23 65.606 39.305 65.856 39.455C66.106 39.605 66.306 39.81 66.456 40.07C66.616 40.32 66.696 40.6 66.696 40.91V46.31ZM73.3318 45.32C73.3318 45.79 73.1668 46.19 72.8368 46.52C72.5168 46.84 72.1268 47 71.6668 47H69.5818C69.1218 47 68.7268 46.84 68.3968 46.52C68.0668 46.19 67.9018 45.79 67.9018 45.32V43.685C67.9018 43.375 67.9768 43.1 68.1268 42.86C68.2868 42.61 68.4918 42.41 68.7418 42.26C68.9918 42.11 69.2718 42.035 69.5818 42.035H71.3518C71.4018 42.035 71.4468 42.015 71.4868 41.975C71.5368 41.935 71.5618 41.885 71.5618 41.825V41.225C71.5618 41.165 71.5368 41.115 71.4868 41.075C71.4468 41.035 71.4018 41.015 71.3518 41.015H69.5818C69.3918 41.015 69.2268 40.95 69.0868 40.82C68.9568 40.69 68.8918 40.53 68.8918 40.34V39.935C68.8918 39.735 68.9568 39.57 69.0868 39.44C69.2268 39.3 69.3918 39.23 69.5818 39.23H71.6668C71.9768 39.23 72.2568 39.305 72.5068 39.455C72.7568 39.605 72.9568 39.81 73.1068 40.07C73.2568 40.32 73.3318 40.6 73.3318 40.91V45.32ZM71.5618 45.035V44C71.5618 43.95 71.5368 43.905 71.4868 43.865C71.4468 43.825 71.4018 43.805 71.3518 43.805H69.8968C69.8468 43.805 69.7968 43.825 69.7468 43.865C69.7068 43.905 69.6868 43.95 69.6868 44V45.035C69.6868 45.085 69.7068 45.13 69.7468 45.17C69.7968 45.21 69.8468 45.23 69.8968 45.23H71.3518C71.4018 45.23 71.4468 45.21 71.4868 45.17C71.5368 45.13 71.5618 45.085 71.5618 45.035ZM82.4642 46.31C82.4642 46.5 82.3992 46.665 82.2692 46.805C82.1392 46.935 81.9792 47 81.7892 47H79.6892C79.2292 47 78.8342 46.84 78.5042 46.52C78.1842 46.19 78.0242 45.79 78.0242 45.32V37.55C78.0242 37.35 78.0892 37.185 78.2192 37.055C78.3492 36.925 78.5092 36.86 78.6992 36.86H79.1192C79.3092 36.86 79.4692 36.925 79.5992 37.055C79.7392 37.185 79.8092 37.35 79.8092 37.55V39.05C79.8092 39.17 79.8742 39.23 80.0042 39.23H81.7892C81.9792 39.23 82.1392 39.3 82.2692 39.44C82.3992 39.57 82.4642 39.735 82.4642 39.935V40.34C82.4642 40.51 82.3992 40.67 82.2692 40.82C82.1192 40.95 81.9592 41.015 81.7892 41.015H80.0042C79.8742 41.015 79.8092 41.085 79.8092 41.225V45.035C79.8092 45.165 79.8742 45.23 80.0042 45.23H81.7892C81.9792 45.23 82.1392 45.295 82.2692 45.425C82.3992 45.555 82.4642 45.72 82.4642 45.92V46.31ZM89.1081 45.32C89.1081 45.79 88.9431 46.19 88.6131 46.52C88.2931 46.84 87.9031 47 87.4431 47H85.3581C84.8981 47 84.5031 46.84 84.1731 46.52C83.8431 46.19 83.6781 45.79 83.6781 45.32V40.91C83.6781 40.6 83.7531 40.32 83.9031 40.07C84.0631 39.81 84.2681 39.605 84.5181 39.455C84.7681 39.305 85.0481 39.23 85.3581 39.23H87.4431C87.7531 39.23 88.0331 39.305 88.2831 39.455C88.5331 39.605 88.7331 39.81 88.8831 40.07C89.0331 40.32 89.1081 40.6 89.1081 40.91V45.32ZM87.3381 45.035V41.225C87.3381 41.165 87.3131 41.115 87.2631 41.075C87.2231 41.035 87.1781 41.015 87.1281 41.015H85.6731C85.6231 41.015 85.5731 41.035 85.5231 41.075C85.4831 41.115 85.4631 41.165 85.4631 41.225V45.035C85.4631 45.085 85.4831 45.13 85.5231 45.17C85.5731 45.21 85.6231 45.23 85.6731 45.23H87.1281C87.1781 45.23 87.2231 45.21 87.2631 45.17C87.3131 45.13 87.3381 45.085 87.3381 45.035ZM95.7585 45.32C95.7585 45.79 95.5935 46.19 95.2635 46.52C94.9435 46.84 94.5535 47 94.0935 47H92.0085C91.5485 47 91.1535 46.84 90.8235 46.52C90.4935 46.19 90.3285 45.79 90.3285 45.32V40.91C90.3285 40.6 90.4035 40.32 90.5535 40.07C90.7135 39.81 90.9185 39.605 91.1685 39.455C91.4185 39.305 91.6985 39.23 92.0085 39.23H94.0935C94.4035 39.23 94.6835 39.305 94.9335 39.455C95.1835 39.605 95.3835 39.81 95.5335 40.07C95.6835 40.32 95.7585 40.6 95.7585 40.91V45.32ZM93.9885 45.035V41.225C93.9885 41.165 93.9635 41.115 93.9135 41.075C93.8735 41.035 93.8285 41.015 93.7785 41.015H92.3235C92.2735 41.015 92.2235 41.035 92.1735 41.075C92.1335 41.115 92.1135 41.165 92.1135 41.225V45.035C92.1135 45.085 92.1335 45.13 92.1735 45.17C92.2235 45.21 92.2735 45.23 92.3235 45.23H93.7785C93.8285 45.23 93.8735 45.21 93.9135 45.17C93.9635 45.13 93.9885 45.085 93.9885 45.035ZM99.7089 46.31C99.7089 46.5 99.6389 46.665 99.4989 46.805C99.3689 46.935 99.2089 47 99.0189 47H98.6439C98.1839 47 97.7889 46.84 97.4589 46.52C97.1289 46.19 96.9639 45.79 96.9639 45.32V37.55C96.9639 37.35 97.0289 37.185 97.1589 37.055C97.2989 36.925 97.4639 36.86 97.6539 36.86H98.0739C98.2639 36.86 98.4239 36.925 98.5539 37.055C98.6939 37.185 98.7639 37.35 98.7639 37.55V45.035C98.7639 45.165 98.8239 45.23 98.9439 45.23H99.0189C99.2089 45.23 99.3689 45.295 99.4989 45.425C99.6389 45.555 99.7089 45.72 99.7089 45.92V46.31ZM106.32 45.32C106.32 45.79 106.155 46.19 105.825 46.52C105.505 46.84 105.115 47 104.655 47H102.57C102.11 47 101.715 46.84 101.385 46.52C101.055 46.19 100.89 45.79 100.89 45.32V44.705C100.89 44.515 100.955 44.355 101.085 44.225C101.225 44.085 101.39 44.015 101.58 44.015H102C102.19 44.015 102.35 44.085 102.48 44.225C102.61 44.355 102.675 44.515 102.675 44.705V45.035C102.675 45.165 102.745 45.23 102.885 45.23H104.34C104.39 45.23 104.435 45.21 104.475 45.17C104.525 45.13 104.55 45.085 104.55 45.035V44.48C104.55 44.4 104.51 44.345 104.43 44.315L102.255 43.625C101.855 43.485 101.525 43.245 101.265 42.905C101.015 42.565 100.89 42.18 100.89 41.75V40.91C100.89 40.6 100.965 40.32 101.115 40.07C101.275 39.82 101.48 39.62 101.73 39.47C101.98 39.31 102.26 39.23 102.57 39.23H104.655C104.965 39.23 105.245 39.31 105.495 39.47C105.745 39.62 105.945 39.82 106.095 40.07C106.245 40.32 106.32 40.6 106.32 40.91V41.51C106.32 41.7 106.255 41.865 106.125 42.005C105.995 42.135 105.835 42.2 105.645 42.2H105.225C105.035 42.2 104.875 42.135 104.745 42.005C104.615 41.865 104.55 41.7 104.55 41.51V41.225C104.55 41.165 104.525 41.115 104.475 41.075C104.435 41.035 104.39 41.015 104.34 41.015H102.885C102.745 41.015 102.675 41.085 102.675 41.225V41.75C102.675 41.85 102.715 41.91 102.795 41.93L104.97 42.62C105.38 42.75 105.705 42.985 105.945 43.325C106.195 43.665 106.32 44.05 106.32 44.48V45.32Z"
          fill="black"/>
    <path d="M32.5 44L18.2478 33.1013C16.5159 31.7769 15.5 29.7211 15.5 27.5408V21.5V10C15.5 6.13401 12.366 3 8.5 3H5"
          stroke="black" stroke-width="2"/>
    <circle cx="34" cy="45" r="2" stroke="black" stroke-width="2"/>
    <circle cx="3" cy="3" r="2" stroke="black" stroke-width="2"/>
</svg>
